<svg width="273" height="70" viewBox="0 0 273 70" fill="none" xmlns="http://www.w3.org/2000/svg">
<path d="M3.25 24.625C3.25 22.625 3.54167 20.9271 4.125 19.5312C4.70833 18.1146 5.44792 16.9375 6.34375 16C7.26042 15.0625 8.26042 14.3333 9.34375 13.8125C10.4479 13.2708 11.5104 12.8646 12.5312 12.5938C13.5729 12.3229 14.5104 12.1562 15.3438 12.0938C16.1771 12.0312 16.7917 12 17.1875 12H18.25C18.6458 12 19.2604 12.0312 20.0938 12.0938C20.9271 12.1562 21.8542 12.3229 22.875 12.5938C23.8958 12.8646 24.9479 13.2708 26.0312 13.8125C27.1354 14.3333 28.125 15.0625 29 16C29.8958 16.9375 30.625 18.1146 31.1875 19.5312C31.7708 20.9271 32.0625 22.625 32.0625 24.625V43.3125C32.0625 45.375 31.7708 47.125 31.1875 48.5625C30.625 50 29.8958 51.1979 29 52.1562C28.125 53.1146 27.1354 53.875 26.0312 54.4375C24.9479 54.9792 23.8958 55.3854 22.875 55.6562C21.8542 55.9271 20.9271 56.0938 20.0938 56.1562C19.2604 56.2188 18.6458 56.25 18.25 56.25H17.1875C16.7917 56.25 16.1771 56.2188 15.3438 56.1562C14.5104 56.0938 13.5729 55.9271 12.5312 55.6562C11.5104 55.3854 10.4479 54.9792 9.34375 54.4375C8.26042 53.875 7.26042 53.1146 6.34375 52.1562C5.44792 51.1979 4.70833 50 4.125 48.5625C3.54167 47.125 3.25 45.375 3.25 43.3125V24.625ZM13.625 44.5C13.6667 45.2708 13.8438 45.9479 14.1562 46.5312C14.4271 47.0521 14.8333 47.5208 15.375 47.9375C15.9375 48.3542 16.7292 48.5625 17.75 48.5625C18.75 48.5625 19.5208 48.3542 20.0625 47.9375C20.6042 47.5208 21.0104 47.0521 21.2812 46.5312C21.5729 45.9479 21.75 45.2708 21.8125 44.5V24.125C21.75 23.375 21.5729 22.6979 21.2812 22.0938C21.0104 21.5938 20.6042 21.1354 20.0625 20.7188C19.5208 20.2812 18.75 20.0625 17.75 20.0625C16.7292 20.0625 15.9375 20.2812 15.375 20.7188C14.8333 21.1354 14.4271 21.5938 14.1562 22.0938C13.8438 22.6979 13.6667 23.375 13.625 24.125V44.5ZM61.625 12.25C62.2292 12.25 62.8125 12.3542 63.375 12.5625C63.9375 12.7708 64.4271 13.0521 64.8438 13.4062C65.2812 13.7604 65.625 14.1875 65.875 14.6875C66.125 15.1667 66.25 15.6875 66.25 16.25C66.25 16.5208 66.2292 16.7812 66.1875 17.0312C66.1667 17.2604 66.1354 17.4688 66.0938 17.6562C66.0312 17.8854 65.9792 18.0833 65.9375 18.25C64.5208 23.8125 63.0417 29.4896 61.5 35.2812C59.9583 41.0521 58.4792 46.7083 57.0625 52.25C56.75 52.9583 56.3333 53.5833 55.8125 54.125C55.375 54.6042 54.8021 55.0417 54.0938 55.4375C53.4062 55.8125 52.5417 56 51.5 56H50.5C49.4583 56 48.5833 55.8125 47.875 55.4375C47.1667 55.0417 46.5938 54.6042 46.1562 54.125C45.6354 53.5833 45.2292 52.9583 44.9375 52.25L36.0625 18.25C36 18.0833 35.9479 17.8854 35.9062 17.6562C35.8021 17.2396 35.75 16.7708 35.75 16.25C35.75 15.6875 35.8646 15.1667 36.0938 14.6875C36.3438 14.1875 36.6771 13.7604 37.0938 13.4062C37.5104 13.0521 38 12.7708 38.5625 12.5625C39.125 12.3542 39.7292 12.25 40.375 12.25C41.375 12.25 42.1771 12.4688 42.7812 12.9062C43.4062 13.3438 43.8958 13.8333 44.25 14.375C44.6458 15 44.9375 15.7083 45.125 16.5C45.375 17.5 45.6458 18.6354 45.9375 19.9062C46.2292 21.1562 46.5208 22.4583 46.8125 23.8125C47.1042 25.1667 47.3958 26.5521 47.6875 27.9688C48 29.3646 48.2917 30.7188 48.5625 32.0312C49.2083 35.1146 49.8542 38.2708 50.5 41.5H51.5C52.2083 38.2708 52.8958 35.1146 53.5625 32.0312C53.8333 30.7188 54.1146 29.3646 54.4062 27.9688C54.7188 26.5521 55.0208 25.1667 55.3125 23.8125C55.6042 22.4583 55.8854 21.1562 56.1562 19.9062C56.4271 18.6354 56.6667 17.5 56.875 16.5C57.0833 15.7083 57.3854 15 57.7812 14.375C58.1354 13.8333 58.6146 13.3438 59.2188 12.9062C59.8229 12.4688 60.625 12.25 61.625 12.25ZM87.8125 12.25C88.6458 12.25 89.4896 12.2812 90.3438 12.3438C91.1979 12.4062 91.9688 12.5833 92.6562 12.875C93.3438 13.1667 93.9062 13.6146 94.3438 14.2188C94.7812 14.8021 95 15.625 95 16.6875C95 17.75 94.7812 18.5833 94.3438 19.1875C93.9062 19.7708 93.3438 20.2083 92.6562 20.5C91.9688 20.7917 91.1979 20.9688 90.3438 21.0312C89.4896 21.0938 88.6458 21.125 87.8125 21.125H80.375V29.625H84.3125C85.1458 29.625 85.9792 29.6562 86.8125 29.7188C87.6667 29.7604 88.4167 29.9271 89.0625 30.2188C89.7292 30.4896 90.2708 30.9167 90.6875 31.5C91.1042 32.0625 91.3125 32.8542 91.3125 33.875C91.3125 34.9167 91.1042 35.7188 90.6875 36.2812C90.2708 36.8438 89.7292 37.2708 89.0625 37.5625C88.4167 37.8333 87.6667 38 86.8125 38.0625C85.9792 38.1042 85.1458 38.125 84.3125 38.125H80.375V47.125H87.8125C88.6458 47.125 89.4896 47.1562 90.3438 47.2188C91.1979 47.2812 91.9688 47.4583 92.6562 47.75C93.3438 48.0208 93.9062 48.4583 94.3438 49.0625C94.7812 49.6458 95 50.4583 95 51.5C95 52.5833 94.7708 53.4271 94.3125 54.0312C93.875 54.6354 93.3125 55.0833 92.625 55.375C91.9375 55.6667 91.1667 55.8438 90.3125 55.9062C89.4583 55.9688 88.625 56 87.8125 56H75.5625C74.3958 56 73.4896 55.7917 72.8438 55.375C72.2188 54.9583 71.7604 54.4167 71.4688 53.75C71.1771 53.0625 71 52.2917 70.9375 51.4375C70.8958 50.5833 70.875 49.7083 70.875 48.8125V19.4375C70.875 18.5417 70.8958 17.6667 70.9375 16.8125C71 15.9583 71.1771 15.1979 71.4688 14.5312C71.7604 13.8438 72.2188 13.2917 72.8438 12.875C73.4896 12.4583 74.3958 12.25 75.5625 12.25H87.8125ZM101.75 19.375C101.75 18.4792 101.771 17.6042 101.812 16.75C101.875 15.8958 102.052 15.1354 102.344 14.4688C102.635 13.8021 103.094 13.2708 103.719 12.875C104.365 12.4583 105.271 12.25 106.438 12.25H116.75C119.312 12.375 121.604 12.9167 123.625 13.875C124.479 14.2917 125.312 14.8125 126.125 15.4375C126.958 16.0417 127.698 16.8021 128.344 17.7188C128.99 18.6146 129.51 19.6771 129.906 20.9062C130.302 22.1354 130.5 23.5625 130.5 25.1875C130.5 25.5208 130.469 25.9688 130.406 26.5312C130.344 27.0729 130.208 27.6771 130 28.3438C129.792 28.9896 129.51 29.6667 129.156 30.375C128.802 31.0833 128.333 31.7604 127.75 32.4062C127.167 33.0521 126.448 33.6458 125.594 34.1875C124.76 34.7292 123.771 35.1667 122.625 35.5C123.354 35.7917 124.094 36.1771 124.844 36.6562C125.594 37.1146 126.271 37.7083 126.875 38.4375C127.479 39.1667 127.969 40.0417 128.344 41.0625C128.74 42.0833 128.938 43.2708 128.938 44.625V49.0625C128.938 49.3125 129 49.5208 129.125 49.6875C129.25 49.8542 129.375 50 129.5 50.125C130 50.625 130.292 51.0625 130.375 51.4375C130.458 51.7917 130.5 52.0833 130.5 52.3125C130.5 53.0417 130.354 53.6562 130.062 54.1562C129.771 54.6562 129.385 55.0625 128.906 55.375C128.448 55.6875 127.917 55.9062 127.312 56.0312C126.729 56.1771 126.125 56.25 125.5 56.25C124.812 56.25 124.115 56.1458 123.406 55.9375C122.698 55.7083 122.052 55.3854 121.469 54.9688C120.885 54.5521 120.406 54.0312 120.031 53.4062C119.677 52.7812 119.5 52.0625 119.5 51.25V44.625C119.5 43.7083 119.438 42.8646 119.312 42.0938C119.188 41.3229 118.948 40.6562 118.594 40.0938C118.24 39.5312 117.75 39.0938 117.125 38.7812C116.5 38.4688 115.688 38.3125 114.688 38.3125H111.188V48.75C111.188 49.6667 111.156 50.5625 111.094 51.4375C111.052 52.3125 110.885 53.0938 110.594 53.7812C110.302 54.4479 109.833 54.9896 109.188 55.4062C108.542 55.8021 107.625 56 106.438 56C105.271 56 104.365 55.8021 103.719 55.4062C103.094 54.9896 102.635 54.4479 102.344 53.7812C102.052 53.0938 101.875 52.3125 101.812 51.4375C101.771 50.5625 101.75 49.6667 101.75 48.75V19.375ZM115.438 31.3125C116.479 31.2708 117.417 31.0208 118.25 30.5625C118.604 30.375 118.948 30.1354 119.281 29.8438C119.615 29.5521 119.917 29.1875 120.188 28.75C120.458 28.3125 120.667 27.8021 120.812 27.2188C120.979 26.6354 121.062 25.9583 121.062 25.1875C121.062 24.5 120.979 23.8958 120.812 23.375C120.667 22.8333 120.469 22.3646 120.219 21.9688C119.969 21.5729 119.677 21.2396 119.344 20.9688C119.031 20.6979 118.708 20.4792 118.375 20.3125C117.583 19.9167 116.688 19.6875 115.688 19.625H111.188V31.3125H115.438Z" fill="#6563FF"/>
<path d="M231.953 23.375C231.734 23.375 231.523 23.3633 231.32 23.3398C231.117 23.3086 230.938 23.2461 230.781 23.1523C230.625 23.0508 230.5 22.9102 230.406 22.7305C230.312 22.543 230.266 22.2891 230.266 21.9688C230.266 21.625 230.312 21.3555 230.406 21.1602C230.5 20.9648 230.625 20.8203 230.781 20.7266C230.938 20.6328 231.117 20.5742 231.32 20.5508C231.523 20.5273 231.734 20.5156 231.953 20.5156H237.133C237.328 20.5156 237.527 20.5273 237.73 20.5508C237.934 20.5742 238.113 20.6328 238.27 20.7266C238.434 20.8203 238.566 20.9648 238.668 21.1602C238.77 21.3555 238.82 21.625 238.82 21.9688C238.82 22.2891 238.77 22.543 238.668 22.7305C238.566 22.9102 238.434 23.0508 238.27 23.1523C238.113 23.2461 237.934 23.3086 237.73 23.3398C237.527 23.3633 237.328 23.375 237.133 23.375H232.609H231.953ZM246.836 12.5C247.695 12.5 248.434 12.5977 249.051 12.793C249.676 12.9883 250.199 13.2422 250.621 13.5547C251.051 13.8672 251.395 14.2227 251.652 14.6211C251.91 15.0117 252.105 15.4102 252.238 15.8164C252.379 16.2227 252.469 16.6133 252.508 16.9883C252.555 17.3633 252.578 17.6875 252.578 17.9609C252.578 18.0781 252.566 18.2227 252.543 18.3945C252.527 18.5586 252.461 18.7188 252.344 18.875C252.227 19.0312 252.039 19.1641 251.781 19.2734C251.531 19.3828 251.172 19.4375 250.703 19.4375C250.547 19.4375 250.352 19.4297 250.117 19.4141C249.883 19.3906 249.656 19.3398 249.438 19.2617C249.219 19.1758 249.031 19.0586 248.875 18.9102C248.719 18.7539 248.641 18.5391 248.641 18.2656C248.641 17.8438 248.613 17.4648 248.559 17.1289C248.512 16.793 248.422 16.5078 248.289 16.2734C248.156 16.0391 247.973 15.8594 247.738 15.7344C247.504 15.6094 247.203 15.5469 246.836 15.5469C246.453 15.5469 246.156 15.6289 245.945 15.793C245.742 15.9492 245.594 16.1211 245.5 16.3086C245.391 16.5352 245.328 16.7891 245.312 17.0703V24.5C245.328 24.8438 245.391 25.1445 245.5 25.4023C245.594 25.6289 245.742 25.8359 245.945 26.0234C246.156 26.2109 246.453 26.3047 246.836 26.3047C247.203 26.3047 247.504 26.2305 247.738 26.082C247.973 25.9258 248.156 25.7188 248.289 25.4609C248.422 25.2031 248.512 24.9062 248.559 24.5703C248.613 24.2344 248.641 23.8828 248.641 23.5156C248.641 23.3984 248.66 23.2773 248.699 23.1523C248.738 23.0273 248.828 22.9141 248.969 22.8125C249.109 22.7031 249.316 22.6133 249.59 22.543C249.863 22.4727 250.234 22.4375 250.703 22.4375C251.172 22.4375 251.531 22.4922 251.781 22.6016C252.039 22.7031 252.227 22.8242 252.344 22.9648C252.461 23.0977 252.527 23.2305 252.543 23.3633C252.566 23.4883 252.578 23.5703 252.578 23.6094C252.578 24.4688 252.434 25.2383 252.145 25.918C251.855 26.5898 251.445 27.1602 250.914 27.6289C250.391 28.0977 249.762 28.457 249.027 28.707C248.301 28.9492 247.5 29.0703 246.625 29.0703C246.484 29.0703 246.254 29.0586 245.934 29.0352C245.621 29.0117 245.27 28.9492 244.879 28.8477C244.488 28.7461 244.086 28.5938 243.672 28.3906C243.258 28.1875 242.879 27.9062 242.535 27.5469C242.199 27.1797 241.922 26.7266 241.703 26.1875C241.484 25.6406 241.375 24.9766 241.375 24.1953V17.6562C241.375 17.0156 241.453 16.4492 241.609 15.957C241.766 15.4648 241.969 15.0391 242.219 14.6797C242.477 14.3125 242.77 14.0078 243.098 13.7656C243.426 13.5156 243.762 13.3086 244.105 13.1445C244.902 12.7695 245.812 12.5547 246.836 12.5ZM255.414 15.2891C255.414 14.9531 255.43 14.625 255.461 14.3047C255.492 13.9844 255.566 13.6992 255.684 13.4492C255.809 13.1914 255.988 12.9844 256.223 12.8281C256.457 12.6719 256.781 12.5938 257.195 12.5938C257.641 12.5938 257.988 12.6719 258.238 12.8281C258.488 12.9844 258.672 13.1914 258.789 13.4492C258.906 13.6992 258.977 13.9844 259 14.3047C259.031 14.625 259.047 14.9531 259.047 15.2891V25.5547H261.344C261.664 25.5547 261.98 25.5703 262.293 25.6016C262.605 25.6328 262.883 25.707 263.125 25.8242C263.375 25.9414 263.574 26.1133 263.723 26.3398C263.871 26.5664 263.945 26.875 263.945 27.2656C263.945 27.6641 263.871 27.9805 263.723 28.2148C263.574 28.4414 263.375 28.6133 263.125 28.7305C262.883 28.8477 262.605 28.9219 262.293 28.9531C261.98 28.9844 261.664 29 261.344 29H258.016C257.602 29 257.234 28.9844 256.914 28.9531C256.594 28.9219 256.32 28.8477 256.094 28.7305C255.875 28.6133 255.707 28.4414 255.59 28.2148C255.473 27.9805 255.414 27.6641 255.414 27.2656V15.2891ZM266.641 15.2891C266.641 14.9531 266.656 14.625 266.688 14.3047C266.727 13.9844 266.809 13.6992 266.934 13.4492C267.066 13.1914 267.262 12.9844 267.52 12.8281C267.777 12.6719 268.133 12.5938 268.586 12.5938C269.039 12.5938 269.395 12.6719 269.652 12.8281C269.91 12.9844 270.102 13.1914 270.227 13.4492C270.359 13.6992 270.441 13.9844 270.473 14.3047C270.512 14.625 270.531 14.9531 270.531 15.2891V26.3047C270.531 26.6484 270.516 26.9805 270.484 27.3008C270.453 27.6211 270.371 27.9102 270.238 28.168C270.113 28.418 269.918 28.6211 269.652 28.7773C269.395 28.9258 269.039 29 268.586 29C268.133 29 267.777 28.9258 267.52 28.7773C267.262 28.6211 267.066 28.418 266.934 28.168C266.809 27.9102 266.727 27.6211 266.688 27.3008C266.656 26.9805 266.641 26.6484 266.641 26.3047V15.2891Z" fill="#6563FF"/>
<path d="M181.384 30.4436C180.492 30.9588 179.772 31.7269 179.317 32.6509C178.861 33.5749 178.689 34.6133 178.824 35.6347C178.958 36.6561 179.393 37.6147 180.072 38.3893C180.751 39.1639 181.645 39.7196 182.64 39.9862C183.635 40.2529 184.687 40.2184 185.663 39.8872C186.638 39.556 187.494 38.943 188.121 38.1256C188.748 37.3082 189.119 36.3232 189.186 35.2952C189.253 34.2672 189.014 33.2422 188.499 32.35C187.808 31.1537 186.671 30.2808 185.336 29.9233C184.002 29.5658 182.58 29.753 181.384 30.4436ZM204.731 36.0952C204.389 35.7044 204.028 35.3125 203.648 34.9196C203.914 34.6408 204.17 34.3622 204.418 34.084C209.102 28.8215 211.079 23.544 209.247 20.3711C207.491 17.3291 202.266 16.4225 195.726 17.6942C195.081 17.8203 194.441 17.9625 193.804 18.1208C193.682 17.7003 193.552 17.2823 193.414 16.8666C191.196 10.1801 187.611 5.8307 183.948 5.83301C180.435 5.83461 177.04 9.90785 174.874 16.2091C174.661 16.8307 174.464 17.4575 174.282 18.0895C173.856 17.9849 173.429 17.8884 172.999 17.7998C166.098 16.383 160.54 17.3161 158.712 20.4907C156.959 23.535 158.792 28.5111 163.17 33.5344C163.604 34.0314 164.051 34.5173 164.51 34.992C163.969 35.5491 163.457 36.1059 162.979 36.6595C158.708 41.612 156.979 46.5067 158.729 49.5378C160.537 52.6688 166.017 53.6922 172.687 52.3797C173.227 52.2725 173.765 52.152 174.299 52.018C174.495 52.7016 174.71 53.3792 174.944 54.0509C177.1 60.2257 180.476 64.1678 183.977 64.1665C187.592 64.1644 191.216 59.929 193.411 53.4952C193.585 52.9867 193.749 52.4587 193.905 51.9151C194.595 52.0869 195.29 52.2393 195.99 52.3724C202.416 53.5883 207.518 52.632 209.265 49.5986C211.068 46.4654 209.209 41.2102 204.731 36.0952ZM160.872 21.7342C161.997 19.78 166.539 19.0177 172.498 20.2409C172.878 20.3192 173.266 20.4067 173.66 20.5034C173.078 23.0767 172.667 25.6857 172.431 28.3132C170.281 29.8257 168.231 31.4757 166.294 33.2529C165.868 32.8116 165.452 32.3596 165.049 31.897C161.298 27.5928 159.815 23.5687 160.872 21.7342ZM172.208 38.4411C170.718 37.3136 169.335 36.1584 168.078 34.9966C169.334 33.8419 170.718 32.6907 172.205 31.5661C172.151 32.7117 172.125 33.8581 172.125 35.0054C172.126 36.1511 172.153 37.2963 172.208 38.4411ZM172.206 49.9346C169.678 50.4967 167.068 50.5888 164.507 50.2062C163.805 50.1516 163.121 49.9535 162.498 49.6242C161.876 49.295 161.327 48.8416 160.887 48.292C159.825 46.4525 161.213 42.5228 164.866 38.2872C165.326 37.7563 165.8 37.2394 166.289 36.7363C168.226 38.5228 170.28 40.1792 172.435 41.6948C172.675 44.356 173.09 46.9984 173.678 49.6048C173.19 49.7268 172.699 49.8368 172.206 49.9346ZM192.917 26.4865C191.939 25.8701 190.949 25.2735 189.946 24.6966C188.96 24.1289 187.962 23.5824 186.952 23.0573C188.681 22.3301 190.381 21.709 192.023 21.2028C192.41 22.9479 192.708 24.7113 192.917 26.4865ZM177.231 17.019C179.086 11.6199 181.832 8.32583 183.949 8.32492C186.204 8.32384 189.134 11.8782 191.049 17.6513C191.174 18.0277 191.291 18.4062 191.402 18.7867C188.885 19.5673 186.423 20.5136 184.031 21.6194C181.649 20.5006 179.195 19.5438 176.684 18.7554C176.852 18.1722 177.034 17.5934 177.231 17.019ZM176.063 21.1718C177.775 21.7107 179.459 22.3357 181.108 23.0443C179.064 24.0987 177.074 25.2473 175.136 26.49C175.37 24.6292 175.682 22.8463 176.063 21.1718ZM175.14 43.5154C176.107 44.134 177.087 44.7297 178.082 45.3025C179.096 45.8866 180.124 46.4462 181.166 46.9813C179.504 47.7143 177.806 48.3616 176.078 48.9206C175.692 47.2228 175.377 45.4086 175.14 43.5154ZM191.053 52.6898C190.277 55.1606 189.053 57.4675 187.442 59.4951C187.044 60.076 186.53 60.5691 185.934 60.9439C185.338 61.3186 184.671 61.5671 183.975 61.6741C181.851 61.6753 179.141 58.5095 177.296 53.229C177.079 52.6047 176.88 51.9747 176.697 51.339C179.22 50.5252 181.684 49.5412 184.074 48.394C186.485 49.507 188.967 50.4603 191.504 51.248C191.365 51.7321 191.215 52.2127 191.053 52.6898ZM192.109 48.8275C190.449 48.3142 188.724 47.6827 186.97 46.9448C187.959 46.4242 188.955 45.8745 189.959 45.2956C190.988 44.701 191.992 44.0915 192.969 43.4672C192.774 45.2675 192.487 47.0566 192.109 48.8275ZM193.411 34.9947C193.413 36.766 193.358 38.5359 193.245 40.3043C191.808 41.2768 190.291 42.2264 188.713 43.1376C187.141 44.0452 185.583 44.8792 184.056 45.634C182.448 44.8636 180.871 44.0333 179.325 43.1432C177.788 42.2585 176.287 41.3164 174.82 40.3169C174.686 38.549 174.618 36.7779 174.617 35.0036C174.616 33.2305 174.683 31.4598 174.816 29.6904C176.253 28.7094 177.759 27.7605 179.316 26.8615C180.88 25.9583 182.457 25.1278 184.025 24.3751C185.613 25.1468 187.172 25.9739 188.703 26.8562C190.239 27.739 191.745 28.671 193.221 29.6523C193.348 31.4304 193.411 33.2112 193.411 34.9947ZM196.202 20.1406C201.805 19.0506 206.031 19.7838 207.089 21.6171C208.217 23.5701 206.601 27.8835 202.557 32.4273C202.334 32.6779 202.102 32.9298 201.862 33.1826C199.891 31.4016 197.802 29.7568 195.608 28.2597C195.387 25.6608 194.992 23.0797 194.426 20.5337C195.029 20.3852 195.621 20.2542 196.202 20.1406ZM195.823 31.471C197.302 32.5513 198.725 33.7077 200.085 34.9355C198.731 36.1835 197.313 37.3598 195.836 38.4597C195.881 37.3049 195.904 36.1495 195.903 34.9935C195.902 33.8191 195.876 32.6449 195.823 31.471ZM207.105 48.3549C206.045 50.1957 201.948 50.9634 196.452 49.9236C195.823 49.8047 195.176 49.6631 194.514 49.499C195.066 46.9201 195.444 44.3069 195.644 41.6772C197.834 40.1539 199.916 38.4817 201.877 36.6725C202.22 37.0289 202.546 37.3837 202.856 37.7367C204.609 39.6429 205.996 41.8553 206.948 44.2638C207.252 44.8988 207.423 45.5894 207.45 46.2931C207.477 46.9968 207.36 47.6985 207.105 48.3549Z" fill="#6563FF"/>
<path d="M151.438 48.3125C152.021 48.3125 152.583 48.3542 153.125 48.4375C153.667 48.5 154.146 48.6667 154.562 48.9375C154.979 49.1875 155.312 49.5625 155.562 50.0625C155.812 50.5625 155.938 51.2292 155.938 52.0625C155.938 52.9792 155.812 53.6979 155.562 54.2188C155.312 54.7396 154.979 55.125 154.562 55.375C154.146 55.625 153.667 55.7812 153.125 55.8438C152.583 55.9062 152.021 55.9375 151.438 55.9375H145C144.354 55.9375 143.76 55.875 143.219 55.75C142.677 55.6042 142.198 55.3646 141.781 55.0312C141.385 54.6771 141.073 54.2188 140.844 53.6562C140.615 53.0729 140.5 52.3333 140.5 51.4375V16.75C140.5 15.2708 140.833 14.1354 141.5 13.3438C142.188 12.5312 143.375 12.125 145.062 12.125H151.5C152.083 12.125 152.646 12.1667 153.188 12.25C153.729 12.3125 154.208 12.4792 154.625 12.75C155.042 13 155.375 13.375 155.625 13.875C155.875 14.375 156 15.0417 156 15.875C156 16.7917 155.875 17.5104 155.625 18.0312C155.375 18.5521 155.042 18.9375 154.625 19.1875C154.208 19.4375 153.729 19.5938 153.188 19.6562C152.646 19.7188 152.083 19.75 151.5 19.75H148.125V48.3125H151.438Z" fill="#6563FF"/>
<path d="M219.25 48.3125V19.75H215.875C215.292 19.75 214.729 19.7188 214.188 19.6562C213.646 19.5938 213.167 19.4375 212.75 19.1875C212.333 18.9375 212 18.5521 211.75 18.0312C211.5 17.5104 211.375 16.7917 211.375 15.875C211.375 15.0417 211.5 14.375 211.75 13.875C212 13.375 212.333 13 212.75 12.75C213.167 12.4792 213.646 12.3125 214.188 12.25C214.729 12.1667 215.292 12.125 215.875 12.125H222.312C224 12.125 225.177 12.5312 225.844 13.3438C226.531 14.1354 226.875 15.2708 226.875 16.75V51.4375C226.875 52.3333 226.76 53.0729 226.531 53.6562C226.302 54.2188 225.979 54.6771 225.562 55.0312C225.167 55.3646 224.698 55.6042 224.156 55.75C223.615 55.875 223.021 55.9375 222.375 55.9375H215.938C215.354 55.9375 214.792 55.9062 214.25 55.8438C213.708 55.7812 213.229 55.625 212.812 55.375C212.396 55.125 212.062 54.7396 211.812 54.2188C211.562 53.6979 211.438 52.9792 211.438 52.0625C211.438 51.2292 211.562 50.5625 211.812 50.0625C212.062 49.5625 212.396 49.1875 212.812 48.9375C213.229 48.6667 213.708 48.5 214.25 48.4375C214.792 48.3542 215.354 48.3125 215.938 48.3125H219.25Z" fill="#6563FF"/>
</svg>
